<svg width="20" height="20" viewBox="0 0 20 20" fill="none" xmlns="http://www.w3.org/2000/svg">
<path d="M10 9.99999C9.08333 9.99999 8.33333 9.24999 8.33333 8.33332C8.33333 7.41666 9.08333 6.66666 10 6.66666C10.9167 6.66666 11.6667 7.41666 11.6667 8.33332C11.6667 9.24999 10.9167 9.99999 10 9.99999ZM15 8.49999C15 5.47499 12.7917 3.33332 10 3.33332C7.20833 3.33332 5 5.47499 5 8.49999C5 10.45 6.625 13.0333 10 16.1167C13.375 13.0333 15 10.45 15 8.49999ZM10 1.66666C13.5 1.66666 16.6667 4.34999 16.6667 8.49999C16.6667 11.2667 14.4417 14.5417 10 18.3333C5.55833 14.5417 3.33333 11.2667 3.33333 8.49999C3.33333 4.34999 6.5 1.66666 10 1.66666Z" fill="black" fill-opacity="0.54"/>
</svg>
